<mxfile host="app.diagrams.net" modified="2021-11-08T10:32:54.039Z" agent="5.0 (Macintosh; Intel Mac OS X 10_15_7) AppleWebKit/537.36 (KHTML, like Gecko) Chrome/91.0.4472.124 Safari/537.36 Edg/91.0.864.67" etag="98x4lnvXEvz-tlVLDsr9" version="15.7.0" type="github">
  <diagram id="1wXUoBC2yg0flkBptSx7" name="Performance Limitation Total">
    <mxGraphModel dx="1396" dy="803" grid="1" gridSize="10" guides="1" tooltips="1" connect="1" arrows="1" fold="1" page="1" pageScale="1" pageWidth="827" pageHeight="1169" math="0" shadow="0">
      <root>
        <mxCell id="0" />
        <mxCell id="1" parent="0" />
        <mxCell id="L83t2FpNpIjRfAUCytDg-7" style="edgeStyle=orthogonalEdgeStyle;rounded=0;orthogonalLoop=1;jettySize=auto;html=1;entryX=0;entryY=0.5;entryDx=0;entryDy=0;shadow=0;sketch=1;" edge="1" parent="1" source="L83t2FpNpIjRfAUCytDg-2" target="L83t2FpNpIjRfAUCytDg-6">
          <mxGeometry relative="1" as="geometry">
            <mxPoint x="220" y="100" as="targetPoint" />
          </mxGeometry>
        </mxCell>
        <mxCell id="L83t2FpNpIjRfAUCytDg-2" value="&lt;font face=&quot;Comic Sans MS&quot;&gt;BO Admin&lt;/font&gt;" style="shape=umlActor;verticalLabelPosition=bottom;verticalAlign=top;html=1;outlineConnect=0;shadow=0;sketch=1;" vertex="1" parent="1">
          <mxGeometry x="110" y="70" width="30" height="60" as="geometry" />
        </mxCell>
        <mxCell id="L83t2FpNpIjRfAUCytDg-8" style="edgeStyle=orthogonalEdgeStyle;rounded=0;orthogonalLoop=1;jettySize=auto;html=1;shadow=0;sketch=1;" edge="1" parent="1" source="L83t2FpNpIjRfAUCytDg-6">
          <mxGeometry relative="1" as="geometry">
            <mxPoint x="310" y="200" as="targetPoint" />
          </mxGeometry>
        </mxCell>
        <mxCell id="L83t2FpNpIjRfAUCytDg-6" value="&lt;font face=&quot;Comic Sans MS&quot;&gt;用户分配Privilege权限&lt;/font&gt;" style="rounded=1;whiteSpace=wrap;html=1;shadow=0;sketch=1;" vertex="1" parent="1">
          <mxGeometry x="250" y="70" width="120" height="60" as="geometry" />
        </mxCell>
        <mxCell id="L83t2FpNpIjRfAUCytDg-20" value="" style="edgeStyle=orthogonalEdgeStyle;rounded=0;sketch=1;orthogonalLoop=1;jettySize=auto;html=1;shadow=0;fontFamily=Comic Sans MS;" edge="1" parent="1" source="L83t2FpNpIjRfAUCytDg-9" target="L83t2FpNpIjRfAUCytDg-10">
          <mxGeometry relative="1" as="geometry" />
        </mxCell>
        <mxCell id="L83t2FpNpIjRfAUCytDg-9" value="&lt;font face=&quot;Comic Sans MS&quot;&gt;获取用户所有有效的（包括即将生效的）Privilege 权限&lt;/font&gt;" style="rounded=1;whiteSpace=wrap;html=1;shadow=0;sketch=1;" vertex="1" parent="1">
          <mxGeometry x="250" y="200" width="120" height="60" as="geometry" />
        </mxCell>
        <mxCell id="L83t2FpNpIjRfAUCytDg-21" value="" style="edgeStyle=orthogonalEdgeStyle;rounded=0;sketch=1;orthogonalLoop=1;jettySize=auto;html=1;shadow=0;fontFamily=Comic Sans MS;" edge="1" parent="1" source="L83t2FpNpIjRfAUCytDg-10" target="L83t2FpNpIjRfAUCytDg-14">
          <mxGeometry relative="1" as="geometry" />
        </mxCell>
        <mxCell id="L83t2FpNpIjRfAUCytDg-10" value="&lt;font face=&quot;Comic Sans MS&quot;&gt;获取所有Privilege对应的package，去重&lt;/font&gt;" style="rounded=1;whiteSpace=wrap;html=1;shadow=0;sketch=1;" vertex="1" parent="1">
          <mxGeometry x="250" y="310" width="120" height="60" as="geometry" />
        </mxCell>
        <mxCell id="L83t2FpNpIjRfAUCytDg-23" value="" style="edgeStyle=orthogonalEdgeStyle;rounded=0;sketch=1;orthogonalLoop=1;jettySize=auto;html=1;shadow=0;fontFamily=Comic Sans MS;" edge="1" parent="1" source="L83t2FpNpIjRfAUCytDg-11" target="L83t2FpNpIjRfAUCytDg-19">
          <mxGeometry relative="1" as="geometry" />
        </mxCell>
        <mxCell id="L83t2FpNpIjRfAUCytDg-11" value="&lt;font face=&quot;Comic Sans MS&quot;&gt;计算该package下的所有的performance Limitation&lt;/font&gt;" style="rounded=1;whiteSpace=wrap;html=1;shadow=0;sketch=1;" vertex="1" parent="1">
          <mxGeometry x="250" y="520" width="120" height="60" as="geometry" />
        </mxCell>
        <mxCell id="L83t2FpNpIjRfAUCytDg-22" value="" style="edgeStyle=orthogonalEdgeStyle;rounded=0;sketch=1;orthogonalLoop=1;jettySize=auto;html=1;shadow=0;fontFamily=Comic Sans MS;" edge="1" parent="1" source="L83t2FpNpIjRfAUCytDg-14" target="L83t2FpNpIjRfAUCytDg-11">
          <mxGeometry relative="1" as="geometry" />
        </mxCell>
        <mxCell id="L83t2FpNpIjRfAUCytDg-14" value="&lt;font face=&quot;Comic Sans MS&quot;&gt;循环package&lt;/font&gt;" style="rounded=1;whiteSpace=wrap;html=1;shadow=0;sketch=1;" vertex="1" parent="1">
          <mxGeometry x="250" y="420" width="120" height="60" as="geometry" />
        </mxCell>
        <mxCell id="L83t2FpNpIjRfAUCytDg-18" style="edgeStyle=orthogonalEdgeStyle;rounded=0;orthogonalLoop=1;jettySize=auto;html=1;entryX=0;entryY=0.25;entryDx=0;entryDy=0;exitX=0;exitY=0.5;exitDx=0;exitDy=0;shadow=0;sketch=1;" edge="1" parent="1" source="L83t2FpNpIjRfAUCytDg-17" target="L83t2FpNpIjRfAUCytDg-11">
          <mxGeometry relative="1" as="geometry" />
        </mxCell>
        <mxCell id="L83t2FpNpIjRfAUCytDg-25" value="是" style="edgeLabel;html=1;align=center;verticalAlign=middle;resizable=0;points=[];fontFamily=Comic Sans MS;" vertex="1" connectable="0" parent="L83t2FpNpIjRfAUCytDg-18">
          <mxGeometry x="-0.4237" y="-1" relative="1" as="geometry">
            <mxPoint as="offset" />
          </mxGeometry>
        </mxCell>
        <mxCell id="L83t2FpNpIjRfAUCytDg-27" value="" style="edgeStyle=orthogonalEdgeStyle;rounded=0;sketch=1;orthogonalLoop=1;jettySize=auto;html=1;shadow=0;fontFamily=Comic Sans MS;" edge="1" parent="1" source="L83t2FpNpIjRfAUCytDg-17" target="L83t2FpNpIjRfAUCytDg-26">
          <mxGeometry relative="1" as="geometry" />
        </mxCell>
        <mxCell id="L83t2FpNpIjRfAUCytDg-17" value="&lt;font face=&quot;Comic Sans MS&quot;&gt;还有其他package&lt;/font&gt;" style="rhombus;whiteSpace=wrap;html=1;shadow=0;sketch=1;" vertex="1" parent="1">
          <mxGeometry x="260" y="750" width="100" height="60" as="geometry" />
        </mxCell>
        <mxCell id="L83t2FpNpIjRfAUCytDg-24" value="" style="edgeStyle=orthogonalEdgeStyle;rounded=0;sketch=1;orthogonalLoop=1;jettySize=auto;html=1;shadow=0;fontFamily=Comic Sans MS;" edge="1" parent="1" source="L83t2FpNpIjRfAUCytDg-19" target="L83t2FpNpIjRfAUCytDg-17">
          <mxGeometry relative="1" as="geometry" />
        </mxCell>
        <mxCell id="L83t2FpNpIjRfAUCytDg-19" value="&lt;font face=&quot;Comic Sans MS&quot;&gt;获取不同周期的performance Limitation，相同周期的取最大值&lt;/font&gt;" style="rounded=1;whiteSpace=wrap;html=1;shadow=0;sketch=1;" vertex="1" parent="1">
          <mxGeometry x="250" y="630" width="120" height="60" as="geometry" />
        </mxCell>
        <mxCell id="L83t2FpNpIjRfAUCytDg-26" value="该用户的各项performance Limitation的总量" style="rounded=1;whiteSpace=wrap;html=1;shadow=0;fontFamily=Comic Sans MS;sketch=1;" vertex="1" parent="1">
          <mxGeometry x="250" y="850" width="120" height="60" as="geometry" />
        </mxCell>
      </root>
    </mxGraphModel>
  </diagram>
</mxfile>
